<?xml version="1.0" encoding="UTF-8"?> <!-- Generator: Adobe Illustrator 23.0.1, SVG Export Plug-In . SVG Version: 6.00 Build 0) --> <svg xmlns="http://www.w3.org/2000/svg" xmlns:xlink="http://www.w3.org/1999/xlink" version="1.1" id="Layer_1" x="0px" y="0px" viewBox="0 0 2000 255.3" style="enable-background:new 0 0 2000 255.3;" xml:space="preserve"> <style type="text/css"> .st0{clip-path:url(#SVGID_2_);fill:#0028ED;} .st1{clip-path:url(#SVGID_2_);fill:#231F20;} .st2{clip-path:url(#SVGID_2_);fill:#30E5C2;} .st3{clip-path:url(#SVGID_2_);fill:#3684F2;} .st4{clip-path:url(#SVGID_2_);fill:#39C9EA;} .st5{clip-path:url(#SVGID_2_);fill:#6ECFF9;} .st6{clip-path:url(#SVGID_2_);fill:#03A4FF;} </style> <g> <defs> <rect id="SVGID_1_" width="2000" height="441.8"></rect> </defs> <clipPath id="SVGID_2_"> <use xlink:href="#SVGID_1_" style="overflow:visible;"></use> </clipPath> <path class="st0" d="M1122.5,247.7c-13.8,0-25.4-12.9-25.4-25.4c0-14.2,11.6-25.4,25.4-25.4c14.8,0,25.8,11.3,25.8,25.4 C1148.2,234.8,1137.3,247.7,1122.5,247.7"></path> <polygon class="st0" points="1284,246.4 1247.9,155.3 1212.2,246.4 1190.6,246.4 1121.7,78.6 1166.1,78.6 1204.4,175.2 1244,79.6 1251.8,79.6 1291.1,176.5 1330,78.6 1374.1,78.6 1305.2,246.4 "></polygon> <path class="st0" d="M1459.9,248c-50.2,0-89.2-38.3-89.2-86.6c0-48.6,39-87.6,90.1-87.6c50.2,0,88.2,39.9,88.2,87.6 C1549,209,1509.8,248,1459.9,248 M1504.6,161.4c0-31.2-20-53.4-43.8-53.4c-26.4,0-46,22.2-46,54.4c0,30.6,21.6,52.8,44.8,52.8 C1486.6,215.1,1504.6,193.6,1504.6,161.4"></path> <path class="st0" d="M1580.5,243.1V78.6h41.9v26.1c3.9-8.4,16.7-30.6,36.1-30.6c14.8,0,22.9,4.2,29.6,8l-14.5,39.6 c-5.2-3.5-12.2-8.4-22.5-8.4c-18.7,0-28.7,22.5-28.7,39v90.8H1580.5z"></path> <polygon class="st0" points="1813.1,243.1 1752.8,171 1752.8,243.1 1710.7,243.1 1710.7,0 1752.8,0 1752.8,143.3 1803.4,78.6 1855.5,78.6 1789.9,154.6 1866.8,243.1 "></polygon> <path class="st0" d="M1889.9,197.1c10,9.7,29.9,19.6,45.4,19.6c10,0,21.6-4.2,21.6-18.7c0-21.9-70.8-32.8-70.8-76 c0-25.4,22.5-48.9,57.3-48.9c30.3,0,48.6,12.6,56.3,18.7l-15.1,29c-2.9-3.2-18-15.8-33.8-15.8c-10.9,0-20.3,5.5-20.3,14.8 c0,25.1,69.5,30.3,69.5,76.6c0,31.9-24.1,51.8-61.8,51.8c-29.3,0-50.5-11.3-63.7-20.9L1889.9,197.1z"></path> <path class="st1" d="M150.7,225.4c-6.4,6.4-28,22.5-65.4,22.5C36.7,248,0,209.3,0,161c0-49.9,38.6-87.2,89.8-87.2 c27.4,0,49.6,13.5,55.4,18.7l-14.5,30.3c-5.1-4.5-20-14.5-39-14.5c-25.4,0-48.6,20-48.6,53.1c0,30.3,21.6,52.5,48.3,52.5 c22.5,0,41.2-12.6,46-17.4L150.7,225.4z"></path> <path class="st1" d="M246.2,248c-50.2,0-89.2-38.3-89.2-86.6c0-48.6,39-87.6,90.1-87.6c50.2,0,88.2,39.9,88.2,87.6 C335.4,209,296.1,248,246.2,248 M291,161.4c0-31.2-20-53.4-43.8-53.4c-26.4,0-46,22.2-46,54.4c0,30.6,21.6,52.8,44.8,52.8 C272.9,215.1,291,193.6,291,161.4"></path> <path class="st1" d="M560.5,243.1V139.5c0-19-7.4-28.7-22.9-28.7s-29.3,10-36.1,17.4v114.9h-42.2V137.9c0-19-9.3-27-25.1-27 c-13.8,0-28.7,11.3-33.8,17.7v114.6h-42.2V78.6h42.2v17.1c7.1-6.8,26.1-21.9,51.2-21.9c26.4,0,35.7,16.1,39.9,24.8 c13.2-10,33.8-24.8,58.6-24.8c33.8,0,52.5,18.3,52.5,58.6v110.8H560.5z"></path> <path class="st1" d="M834.1,243.1V139.5c0-19-7.4-28.7-22.9-28.7c-15.5,0-29.3,10-36.1,17.4v114.9H733V137.9c0-19-9.3-27-25.1-27 c-13.8,0-28.7,11.3-33.8,17.7v114.6h-42.2V78.6h42.2v17.1c7.1-6.8,26.1-21.9,51.2-21.9c26.4,0,35.7,16.1,39.9,24.8 c13.2-10,33.8-24.8,58.6-24.8c33.8,0,52.5,18.3,52.5,58.6v110.8H834.1z"></path> <rect x="917.3" y="78.6" class="st1" width="42.2" height="164.5"></rect> <rect x="271.1" y="5.9" class="st2" width="223.7" height="46.9"></rect> <path class="st2" d="M295.4,29.3c0-13-10.5-23.5-23.5-23.5c-13,0-23.5,10.5-23.5,23.5c0,13,10.5,23.5,23.5,23.5 C284.9,52.8,295.4,42.3,295.4,29.3"></path> <rect x="494.4" y="5.9" class="st3" width="223.7" height="46.9"></rect> <path class="st4" d="M516.7,29.3c0-13-10.5-23.5-23.5-23.5c-13,0-23.5,10.5-23.5,23.5c0,13,10.5,23.5,23.5,23.5 C506.2,52.8,516.7,42.3,516.7,29.3"></path> <rect x="717.6" y="5.9" class="st5" width="223.7" height="46.9"></rect> <path class="st6" d="M740.6,29.3c0-13-10.5-23.5-23.5-23.5c-13,0-23.5,10.5-23.5,23.5c0,13,10.5,23.5,23.5,23.5 C730.1,52.8,740.6,42.3,740.6,29.3"></path> <path class="st0" d="M963.6,29.3c0-13-10.5-23.5-23.5-23.5c-13,0-23.5,10.5-23.5,23.5c0,13,10.5,23.5,23.5,23.5 C953.1,52.8,963.6,42.3,963.6,29.3"></path> <rect x="1007.3" y="21.8" class="st1" width="42.3" height="220.8"></rect> <rect x="1020.6" y="30.5" transform="matrix(-1.836970e-16 1 -1 -1.836970e-16 1128.4684 -941.7316)" class="st1" width="29" height="125.8"></rect> </g> </svg> 